.
 
http://www.scenetime.com    -   SceneTime [ We been having it ] !!!


How come you press harder on a remote control when you know the battery is dead? so you better seed to get speed ;)

        Seed back for speed


...................................NFO:.................................................
 ______ ______                         ______              ___________
 ___  /____  /___  ______________      ___  /________________  /___  /_____________________ ______________ _
 __  __ \_  /_  / / /  _ \_  ___/________  __ \_  ___/  __ \  __/_  __ \  _ \_  ___/_  ___/ __  ___/_  __ `/
 _  /_/ /  / / /_/ //  __/(__  )_/_____/  /_/ /  /   / /_/ / /_ _  / / /  __/  /   _(__  )___  /   _  /_/ /
 /_.___//_/  \__,_/ \___//____/        /_.___//_/    \____/\__/ /_/ /_/\___//_/    /____/_(_)_/    _\__, /
                                                                                                   /____/
                                     ___________                    ___________
                              ______ ___  /__  /____  _____________ __  /__<  /
                              _  __ `/_  /__  /__  / / /  ___/  __ `/  __/_  /
                              / /_/ /_  / _  / _  /_/ // /__ / /_/ // /_ _  /
                              \__,_/ /_/  /_/  _\__, / \___/ \__,_/ \__/ /_/
                                               /____/






General
16/6/2011
Complete name                    : C:\Users\ally\Desktop\Sucker.Punch.2011.DVDRipx264_allycat.B-BRG.mkv\Sucker.Punch.2011.DVDRipx264_allycat.B-BRG.mkv
Format                           : Matroska
File size                        : 784 MiB
Duration                         : 1h 49mn
Overall bit rate                 : 999 Kbps
Encoded date                     : UTC 2011-06-16 16:08:18
Writing application              : mkvmerge v4.8.0 ('I Got The...') built on May 24 2011 03:12:58
Writing library                  : libebml v1.2.0 + libmatroska v1.1.0

Video
ID                               : 1
Format                           : AVC
Format/Info                      : Advanced Video Codec
Format profile                   : High@L4.1
Format settings, CABAC           : Yes
Format settings, ReFrames        : 3 frames
Format settings, GOP             : M=4, N=25
Codec ID                         : V_MPEG4/ISO/AVC
Duration                         : 1h 49mn
Bit rate mode                    : Variable
Bit rate                         : 549 Kbps
Maximum bit rate                 : 40.0 Mbps
Width                            : 640 pixels
Height                           : 272 pixels
Display aspect ratio             : 2.35:1
Frame rate                       : 23.976 fps
Color space                      : YUV
Chroma subsampling               : 4:2:0
Bit depth                        : 8 bits
Scan type                        : Progressive
Bits/(Pixel*Frame)               : 0.132
Stream size                      : 417 MiB (53%)
Writing library                  : x264 core 115 r1995 c1e60b9

Language                         : English


Audio
ID                               : 2
Format                           : AC-3
Format/Info                      : Audio Coding 3
Mode extension                   : CM (complete main)
Codec ID                         : A_AC3
Duration                         : 1h 49mn
Bit rate mode                    : Constant
Bit rate                         : 448 Kbps
Channel(s)                       : 2 channels
Channel positions                : Front: L R
Sampling rate                    : 48.0 KHz
Bit depth                        : 16 bits
Compression mode                 : Lossy
Stream size                      : 352 MiB (45%)